# xmcd
#
# Track frame offsets: 
#        150
#        15560
#        30015
#        48009
#        64490
#        84602
#        100804
#        127058
#        145941
#        163696
#        186587
#        207668
#        221347
#        237974
#
# Disc length: 3431 seconds
#
# Revision: 0
# Processed by: cddbd v1.5.1PL0 Copyright (c) Steve Scherf et al.
# Submitted via: ExactAudioCopy v0.95a4
#
DISCID=c50d650e
DTITLE=The Fieldstones - Mud Island Blues
DYEAR=2005
DGENRE=
TTITLE0=Mud Island Blues
TTITLE1=Hand Me Down My Shotgun
TTITLE2=Put Your Loving Arms Around Me
TTITLE3=Movin' Out
TTITLE4=Loving Blues
TTITLE5=Talk to Me, Baby
TTITLE6=Tuffy
TTITLE7=Wrong Doin' Woman
TTITLE8=Old Black Mattie
TTITLE9=Don't Throw Your Love on Me So Strong
TTITLE10=Old Woman from Down Home
TTITLE11=Let's Do It
TTITLE12=That Ain't Right
TTITLE13=Cross Cut Saw
EXTD=
EXTT0=
EXTT1=
EXTT2=
EXTT3=
EXTT4=
EXTT5=
EXTT6=
EXTT7=
EXTT8=
EXTT9=
EXTT10=
EXTT11=
EXTT12=
EXTT13=
PLAYORDER=
